# xmcd CD database file
#
# Track frame offsets:
#	150
#	17685
#	30870
#	50847
#	73930
#	88347
#	100137
#	123662
#	140642
#	154792
#	179857
#	194917
#
# Disc length: 2979 seconds
#
# Revision: 0
# Processed by: cddbd v1.5.1PL0 Copyright (c) Steve Scherf et al.
# Submitted via: CDex 1.51
#
DISCID=b90ba10c
DTITLE=Cate  - Cate 
DYEAR=2004
DGENRE=Country
TTITLE0=Cate - Luckiest Person Alive
TTITLE1=Cate - Universal Law
TTITLE2=Cate - Shy That often Shine
TTITLE3=Cate - Another Country Song
TTITLE4=Cate - Tell Me A Secret
TTITLE5=Cate - Where There's A Love There's A Way
TTITLE6=Cate - You've Got To Learn
TTITLE7=Cate - Closer
TTITLE8=Cate - Roll On Brother
TTITLE9=Cate - When You Found Me
TTITLE10=Cate - Fool Ya
TTITLE11=Cate - We're On The Line
EXTD=YEAR: 2004
EXTT0=
EXTT1=
EXTT2=
EXTT3=
EXTT4=
EXTT5=
EXTT6=
EXTT7=
EXTT8=
EXTT9=
EXTT10=
EXTT11=
PLAYORDER=
